# xmcd
#
# Track frame offsets: 
#        150
#        14257
#        42269
#        66040
#        81276
#        95505
#        115135
#        127986
#        149282
#        160262
#        187291
#        216069
#        227331
#        242149
#
# Disc length: 3377 seconds
#
# Revision: 0
# Processed by: cddbd v1.5.2PL0 Copyright (c) Steve Scherf et al.
# Submitted via: ExactAudioCopy v0.95a4
#
DISCID=bc0d2f0e
DTITLE=Watermelon Slim - Church Of The Blues
DYEAR=2019
DGENRE=Blues
TTITLE0=St. Peter's Ledger
TTITLE1=Tax Man Blues
TTITLE2=Gypsy Woman
TTITLE3=Post-Modern Blues
TTITLE4=Get Out Of My Life Woman
TTITLE5=Mni Wiconi (The Water Song)
TTITLE6=Me And My Woman
TTITLE7=Smokestack Lightning
TTITLE8=That Ole 1-4-5
TTITLE9=Holler #4
TTITLE10=61 Highway Blues
TTITLE11=Too Much Alcohol
TTITLE12=Charlottesville (Blues For My Nation)
TTITLE13=Halloween Mama
EXTD=
EXTT0=
EXTT1=
EXTT2=
EXTT3=
EXTT4=
EXTT5=
EXTT6=
EXTT7=
EXTT8=
EXTT9=
EXTT10=
EXTT11=
EXTT12=
EXTT13=
PLAYORDER=
